<svg width="13" height="22" viewBox="0 0 13 22" fill="none" xmlns="http://www.w3.org/2000/svg">
<path d="M0.349353 1.85489C0.237758 1.74993 0.150517 1.62646 0.0926085 1.49154C0.0347004 1.35662 0.00725937 1.21288 0.0118542 1.06853C0.016448 0.924187 0.0529881 0.782057 0.119385 0.65026C0.185782 0.518463 0.280738 0.399579 0.39883 0.300398C0.516923 0.201216 0.65584 0.123678 0.807649 0.0722113C0.959456 0.0207445 1.12118 -0.00364364 1.2836 0.000439744C1.44601 0.00452313 1.60593 0.0369979 1.75422 0.0960098C1.90251 0.155022 2.03627 0.239415 2.14787 0.344372L12.6619 10.2386C12.879 10.4427 13 10.7129 13 10.9938C13 11.2747 12.879 11.545 12.6619 11.7491L2.14787 21.6444C2.03701 21.7516 1.90328 21.8382 1.75444 21.8992C1.6056 21.9601 1.44463 21.9941 1.28086 21.9993C1.1171 22.0045 0.953811 21.9807 0.800483 21.9293C0.647156 21.8779 0.506845 21.7999 0.387702 21.7C0.268559 21.6 0.172957 21.4799 0.106452 21.3468C0.0399456 21.2137 0.00386143 21.0702 0.000293732 20.9246C-0.00327492 20.779 0.0257454 20.6342 0.0856676 20.4986C0.14559 20.3631 0.235221 20.2395 0.349353 20.135L10.0618 10.9938L0.349353 1.85489Z" fill="#8B0506"/>
</svg>
