<svg width="22" height="20" viewBox="0 0 22 20" fill="none" xmlns="http://www.w3.org/2000/svg">
<path d="M20.6817 4.25L18.3646 13.75H6.0744L3.75733 4.25H20.6817Z" fill="#FAFAFA" stroke="#FAFAFA" stroke-width="0.5"/>
<path d="M1 1H2.70732L3.43902 4M3.43902 4L5.87805 14H18.561L21 4H3.43902Z" fill="#FAFAFA"/>
<path d="M1 1H2.70732L3.43902 4M3.43902 4L5.87805 14H18.561L21 4H3.43902Z" stroke="#FAFAFA" stroke-width="2" stroke-linecap="round" stroke-linejoin="round"/>
<path d="M5.87806 19C6.68628 19 7.34147 18.3284 7.34147 17.5C7.34147 16.6716 6.68628 16 5.87806 16C5.06984 16 4.41464 16.6716 4.41464 17.5C4.41464 18.3284 5.06984 19 5.87806 19Z" fill="#FAFAFA" stroke="#FAFAFA" stroke-width="2" stroke-linecap="round" stroke-linejoin="round"/>
<path d="M18.561 19C19.3692 19 20.0244 18.3284 20.0244 17.5C20.0244 16.6716 19.3692 16 18.561 16C17.7528 16 17.0976 16.6716 17.0976 17.5C17.0976 18.3284 17.7528 19 18.561 19Z" fill="#FAFAFA" stroke="#FAFAFA" stroke-width="2" stroke-linecap="round" stroke-linejoin="round"/>
</svg>
