<svg width="156" height="40" viewBox="0 0 156 40" fill="none" xmlns="http://www.w3.org/2000/svg">
<rect width="156" height="40" rx="10" fill="url(#paint0_linear_916_83)"/>
<path d="M16.7665 27.2088C15.7722 27.2088 14.8823 27.0224 14.0968 26.6495C13.3113 26.2717 12.6873 25.7546 12.225 25.0984C11.7676 24.4421 11.524 23.6914 11.4941 22.8462H14.1788C14.2285 23.4727 14.4995 23.9847 14.9917 24.3825C15.4838 24.7752 16.0755 24.9716 16.7665 24.9716C17.3084 24.9716 17.7907 24.8473 18.2132 24.5987C18.6358 24.3501 18.9689 24.0046 19.2125 23.5621C19.4561 23.1197 19.5755 22.6151 19.5705 22.0483C19.5755 21.4716 19.4537 20.9595 19.2051 20.5121C18.9565 20.0646 18.6159 19.7141 18.1834 19.4606C17.7509 19.2021 17.2537 19.0728 16.6919 19.0728C16.2346 19.0678 15.7846 19.1523 15.3422 19.3263C14.8997 19.5004 14.5492 19.729 14.2907 20.0124L11.7924 19.6023L12.5904 11.7273H21.4498V14.0391H14.8798L14.4398 18.0884H14.5293C14.8127 17.7553 15.2129 17.4794 15.7299 17.2607C16.247 17.0369 16.8137 16.9251 17.4302 16.9251C18.3549 16.9251 19.1802 17.1438 19.9061 17.5813C20.6319 18.0138 21.2037 18.6104 21.6213 19.3711C22.0389 20.1317 22.2477 21.0018 22.2477 21.9812C22.2477 22.9904 22.014 23.8903 21.5467 24.6808C21.0843 25.4663 20.4405 26.0852 19.6152 26.5376C18.7949 26.9851 17.8453 27.2088 16.7665 27.2088ZM32.9118 24.1364V23.331C32.9118 22.7393 33.036 22.195 33.2846 21.6978C33.5382 21.2006 33.9061 20.8004 34.3883 20.4972C34.8706 20.1939 35.4547 20.0423 36.1408 20.0423C36.8468 20.0423 37.4384 20.1939 37.9157 20.4972C38.3929 20.7955 38.7534 21.1932 38.997 21.6903C39.2456 22.1875 39.3699 22.7344 39.3699 23.331V24.1364C39.3699 24.728 39.2456 25.2724 38.997 25.7695C38.7484 26.2667 38.383 26.6669 37.9007 26.9702C37.4235 27.2734 36.8368 27.4251 36.1408 27.4251C35.4448 27.4251 34.8556 27.2734 34.3734 26.9702C33.8912 26.6669 33.5257 26.2667 33.2772 25.7695C33.0336 25.2724 32.9118 24.728 32.9118 24.1364ZM34.8581 23.331V24.1364C34.8581 24.5291 34.9526 24.8896 35.1415 25.2177C35.3304 25.5458 35.6635 25.7099 36.1408 25.7099C36.623 25.7099 36.9537 25.5483 37.1326 25.2251C37.3166 24.897 37.4086 24.5341 37.4086 24.1364V23.331C37.4086 22.9332 37.3216 22.5703 37.1476 22.2422C36.9735 21.9091 36.638 21.7425 36.1408 21.7425C35.6735 21.7425 35.3429 21.9091 35.149 22.2422C34.9551 22.5703 34.8581 22.9332 34.8581 23.331ZM25.1486 15.3963V14.5909C25.1486 13.9943 25.2754 13.4474 25.5289 12.9503C25.7825 12.4531 26.1504 12.0554 26.6326 11.7571C27.1149 11.4538 27.699 11.3022 28.3851 11.3022C29.0861 11.3022 29.6752 11.4538 30.1525 11.7571C30.6348 12.0554 30.9977 12.4531 31.2413 12.9503C31.4849 13.4474 31.6067 13.9943 31.6067 14.5909V15.3963C31.6067 15.9929 31.4824 16.5398 31.2338 17.0369C30.9902 17.5291 30.6273 17.9244 30.1451 18.2227C29.6628 18.521 29.0762 18.6701 28.3851 18.6701C27.6841 18.6701 27.0925 18.521 26.6103 18.2227C26.133 17.9244 25.7701 17.5266 25.5215 17.0295C25.2729 16.5323 25.1486 15.9879 25.1486 15.3963ZM27.1099 14.5909V15.3963C27.1099 15.794 27.2019 16.157 27.3858 16.4851C27.5748 16.8082 27.9078 16.9698 28.3851 16.9698C28.8624 16.9698 29.1905 16.8082 29.3695 16.4851C29.5534 16.157 29.6454 15.794 29.6454 15.3963V14.5909C29.6454 14.1932 29.5584 13.8303 29.3844 13.5021C29.2104 13.169 28.8773 13.0025 28.3851 13.0025C27.9128 13.0025 27.5822 13.169 27.3933 13.5021C27.2044 13.8352 27.1099 14.1982 27.1099 14.5909ZM25.9988 27L36.4988 11.7273H38.3631L27.8631 27H25.9988ZM52.6999 27.2237C51.5813 27.2237 50.6119 26.9776 49.7915 26.4854C48.9712 25.9933 48.3349 25.3047 47.8825 24.4197C47.435 23.5348 47.2113 22.5007 47.2113 21.3175C47.2113 20.1342 47.435 19.0977 47.8825 18.2077C48.3349 17.3178 48.9712 16.6268 49.7915 16.1346C50.6119 15.6424 51.5813 15.3963 52.6999 15.3963C53.8185 15.3963 54.788 15.6424 55.6083 16.1346C56.4286 16.6268 57.0625 17.3178 57.5099 18.2077C57.9624 19.0977 58.1886 20.1342 58.1886 21.3175C58.1886 22.5007 57.9624 23.5348 57.5099 24.4197C57.0625 25.3047 56.4286 25.9933 55.6083 26.4854C54.788 26.9776 53.8185 27.2237 52.6999 27.2237ZM52.7148 25.0611C53.3214 25.0611 53.8285 24.8945 54.2362 24.5614C54.6438 24.2234 54.9471 23.771 55.146 23.2042C55.3498 22.6374 55.4517 22.006 55.4517 21.31C55.4517 20.609 55.3498 19.9751 55.146 19.4084C54.9471 18.8366 54.6438 18.3817 54.2362 18.0437C53.8285 17.7056 53.3214 17.5366 52.7148 17.5366C52.0934 17.5366 51.5763 17.7056 51.1637 18.0437C50.756 18.3817 50.4503 18.8366 50.2464 19.4084C50.0476 19.9751 49.9482 20.609 49.9482 21.31C49.9482 22.006 50.0476 22.6374 50.2464 23.2042C50.4503 23.771 50.756 24.2234 51.1637 24.5614C51.5763 24.8945 52.0934 25.0611 52.7148 25.0611ZM59.2177 17.7603V15.5455H69.2404V17.7603H65.5341V27H62.924V17.7603H59.2177ZM75.9651 23.8604H78.6423C78.6672 24.288 78.8586 24.6186 79.2165 24.8523C79.5745 25.0859 80.0393 25.2028 80.6111 25.2028C81.1927 25.2028 81.6824 25.076 82.0802 24.8224C82.4829 24.5639 82.6842 24.1737 82.6842 23.6516C82.6842 23.3434 82.6072 23.0724 82.453 22.8388C82.2989 22.6001 82.0827 22.4162 81.8042 22.2869C81.5258 22.1577 81.1977 22.093 80.8199 22.093H79.0674V20.1765H80.8199C81.3817 20.1765 81.8067 20.0472 82.0951 19.7887C82.3884 19.5302 82.5351 19.2045 82.5351 18.8118C82.5351 18.3892 82.3809 18.0462 82.0727 17.7827C81.7694 17.5192 81.3493 17.3874 80.8124 17.3874C80.2755 17.3874 79.828 17.5092 79.4701 17.7528C79.1171 17.9964 78.9332 18.3097 78.9182 18.6925H76.2559C76.2659 18.0263 76.4648 17.4471 76.8525 16.9549C77.2453 16.4627 77.7723 16.0799 78.4335 15.8065C79.0997 15.533 79.8504 15.3963 80.6856 15.3963C81.5805 15.3963 82.3536 15.5305 83.0049 15.799C83.6562 16.0675 84.1583 16.4428 84.5113 16.9251C84.8643 17.4023 85.0407 17.9641 85.0407 18.6104C85.0407 19.2319 84.8469 19.7464 84.4591 20.1541C84.0713 20.5568 83.5493 20.8452 82.893 21.0192V21.1385C83.3454 21.1634 83.7531 21.2926 84.116 21.5263C84.479 21.755 84.7673 22.0657 84.9811 22.4585C85.1949 22.8512 85.3018 23.3061 85.3018 23.8232C85.3018 24.5241 85.1004 25.1307 84.6977 25.6428C84.295 26.1499 83.7407 26.5401 83.0347 26.8136C82.3337 27.087 81.5308 27.2237 80.626 27.2237C79.746 27.2237 78.958 27.092 78.262 26.8285C77.5709 26.56 77.0216 26.1747 76.6139 25.6726C76.2062 25.1705 75.99 24.5664 75.9651 23.8604ZM90.7233 27.2312C89.9974 27.2312 89.3437 27.1019 88.762 26.8434C88.1853 26.5799 87.7279 26.1921 87.3898 25.68C87.0567 25.168 86.8902 24.5366 86.8902 23.7859C86.8902 23.1396 87.0095 22.6051 87.2481 22.1825C87.4868 21.7599 87.8124 21.4219 88.2251 21.1683C88.6377 20.9148 89.1025 20.7234 89.6196 20.5941C90.1416 20.4599 90.681 20.3629 91.2378 20.3033C91.909 20.2337 92.4534 20.1715 92.871 20.1168C93.2886 20.0572 93.5919 19.9677 93.7808 19.8484C93.9747 19.7241 94.0716 19.5327 94.0716 19.2741V19.2294C94.0716 18.6676 93.9051 18.2326 93.572 17.9244C93.2389 17.6161 92.7591 17.462 92.1327 17.462C91.4715 17.462 90.947 17.6062 90.5592 17.8945C90.1764 18.1829 89.9179 18.5234 89.7836 18.9162L87.2631 18.5582C87.4619 17.8622 87.79 17.2805 88.2474 16.8132C88.7048 16.3409 89.2641 15.9879 89.9253 15.7543C90.5866 15.5156 91.3174 15.3963 92.1178 15.3963C92.6697 15.3963 93.219 15.4609 93.7659 15.5902C94.3128 15.7195 94.8124 15.9332 95.2648 16.2315C95.7172 16.5249 96.0802 16.9251 96.3536 17.4322C96.632 17.9393 96.7712 18.5732 96.7712 19.3338V27H94.176V25.4265H94.0866C93.9225 25.7447 93.6913 26.043 93.393 26.3214C93.0997 26.5948 92.7293 26.8161 92.2819 26.9851C91.8394 27.1491 91.3199 27.2312 90.7233 27.2312ZM91.4243 25.2475C91.9662 25.2475 92.436 25.1406 92.8337 24.9268C93.2314 24.7081 93.5372 24.4197 93.751 24.0618C93.9697 23.7038 94.0791 23.3136 94.0791 22.891V21.5412C93.9946 21.6108 93.8504 21.6754 93.6466 21.7351C93.4477 21.7947 93.224 21.8469 92.9754 21.8917C92.7268 21.9364 92.4807 21.9762 92.2371 22.011C91.9935 22.0458 91.7822 22.0756 91.6032 22.1005C91.2006 22.1552 90.8401 22.2447 90.5219 22.369C90.2037 22.4933 89.9527 22.6673 89.7687 22.891C89.5848 23.1097 89.4928 23.3931 89.4928 23.7411C89.4928 24.2383 89.6743 24.6136 90.0372 24.8672C90.4001 25.1207 90.8625 25.2475 91.4243 25.2475ZM99.4857 27V15.5455H102.185V20.169H103.17L106.615 15.5455H109.866L105.623 21.1683L109.911 27H106.645L103.505 22.6822H102.185V27H99.4857ZM114.738 27.2312C114.012 27.2312 113.358 27.1019 112.777 26.8434C112.2 26.5799 111.743 26.1921 111.404 25.68C111.071 25.168 110.905 24.5366 110.905 23.7859C110.905 23.1396 111.024 22.6051 111.263 22.1825C111.501 21.7599 111.827 21.4219 112.24 21.1683C112.652 20.9148 113.117 20.7234 113.634 20.5941C114.156 20.4599 114.696 20.3629 115.252 20.3033C115.924 20.2337 116.468 20.1715 116.886 20.1168C117.303 20.0572 117.607 19.9677 117.795 19.8484C117.989 19.7241 118.086 19.5327 118.086 19.2741V19.2294C118.086 18.6676 117.92 18.2326 117.587 17.9244C117.254 17.6161 116.774 17.462 116.147 17.462C115.486 17.462 114.962 17.6062 114.574 17.8945C114.191 18.1829 113.933 18.5234 113.798 18.9162L111.278 18.5582C111.477 17.8622 111.805 17.2805 112.262 16.8132C112.719 16.3409 113.279 15.9879 113.94 15.7543C114.601 15.5156 115.332 15.3963 116.132 15.3963C116.684 15.3963 117.234 15.4609 117.781 15.5902C118.327 15.7195 118.827 15.9332 119.279 16.2315C119.732 16.5249 120.095 16.9251 120.368 17.4322C120.647 17.9393 120.786 18.5732 120.786 19.3338V27H118.191V25.4265H118.101C117.937 25.7447 117.706 26.043 117.408 26.3214C117.114 26.5948 116.744 26.8161 116.297 26.9851C115.854 27.1491 115.335 27.2312 114.738 27.2312ZM115.439 25.2475C115.981 25.2475 116.451 25.1406 116.848 24.9268C117.246 24.7081 117.552 24.4197 117.766 24.0618C117.984 23.7038 118.094 23.3136 118.094 22.891V21.5412C118.009 21.6108 117.865 21.6754 117.661 21.7351C117.462 21.7947 117.239 21.8469 116.99 21.8917C116.741 21.9364 116.495 21.9762 116.252 22.011C116.008 22.0458 115.797 22.0756 115.618 22.1005C115.215 22.1552 114.855 22.2447 114.537 22.369C114.218 22.4933 113.967 22.6673 113.783 22.891C113.599 23.1097 113.507 23.3931 113.507 23.7411C113.507 24.2383 113.689 24.6136 114.052 24.8672C114.415 25.1207 114.877 25.2475 115.439 25.2475ZM122.866 23.8604H125.544C125.569 24.288 125.76 24.6186 126.118 24.8523C126.476 25.0859 126.941 25.2028 127.512 25.2028C128.094 25.2028 128.584 25.076 128.982 24.8224C129.384 24.5639 129.586 24.1737 129.586 23.6516C129.586 23.3434 129.509 23.0724 129.354 22.8388C129.2 22.6001 128.984 22.4162 128.706 22.2869C128.427 22.1577 128.099 22.093 127.721 22.093H125.969V20.1765H127.721C128.283 20.1765 128.708 20.0472 128.996 19.7887C129.29 19.5302 129.436 19.2045 129.436 18.8118C129.436 18.3892 129.282 18.0462 128.974 17.7827C128.671 17.5192 128.251 17.3874 127.714 17.3874C127.177 17.3874 126.729 17.5092 126.371 17.7528C126.018 17.9964 125.835 18.3097 125.82 18.6925H123.157C123.167 18.0263 123.366 17.4471 123.754 16.9549C124.147 16.4627 124.674 16.0799 125.335 15.8065C126.001 15.533 126.752 15.3963 127.587 15.3963C128.482 15.3963 129.255 15.5305 129.906 15.799C130.558 16.0675 131.06 16.4428 131.413 16.9251C131.766 17.4023 131.942 17.9641 131.942 18.6104C131.942 19.2319 131.748 19.7464 131.36 20.1541C130.973 20.5568 130.451 20.8452 129.794 21.0192V21.1385C130.247 21.1634 130.654 21.2926 131.017 21.5263C131.38 21.755 131.669 22.0657 131.882 22.4585C132.096 22.8512 132.203 23.3061 132.203 23.8232C132.203 24.5241 132.002 25.1307 131.599 25.6428C131.196 26.1499 130.642 26.5401 129.936 26.8136C129.235 27.087 128.432 27.2237 127.527 27.2237C126.647 27.2237 125.859 27.092 125.163 26.8285C124.472 26.56 123.923 26.1747 123.515 25.6726C123.108 25.1705 122.891 24.5664 122.866 23.8604ZM137.625 27.2312C136.899 27.2312 136.245 27.1019 135.663 26.8434C135.087 26.5799 134.629 26.1921 134.291 25.68C133.958 25.168 133.792 24.5366 133.792 23.7859C133.792 23.1396 133.911 22.6051 134.15 22.1825C134.388 21.7599 134.714 21.4219 135.126 21.1683C135.539 20.9148 136.004 20.7234 136.521 20.5941C137.043 20.4599 137.582 20.3629 138.139 20.3033C138.81 20.2337 139.355 20.1715 139.772 20.1168C140.19 20.0572 140.493 19.9677 140.682 19.8484C140.876 19.7241 140.973 19.5327 140.973 19.2741V19.2294C140.973 18.6676 140.806 18.2326 140.473 17.9244C140.14 17.6161 139.661 17.462 139.034 17.462C138.373 17.462 137.848 17.6062 137.461 17.8945C137.078 18.1829 136.819 18.5234 136.685 18.9162L134.164 18.5582C134.363 17.8622 134.691 17.2805 135.149 16.8132C135.606 16.3409 136.165 15.9879 136.827 15.7543C137.488 15.5156 138.219 15.3963 139.019 15.3963C139.571 15.3963 140.12 15.4609 140.667 15.5902C141.214 15.7195 141.714 15.9332 142.166 16.2315C142.619 16.5249 142.982 16.9251 143.255 17.4322C143.533 17.9393 143.673 18.5732 143.673 19.3338V27H141.077V25.4265H140.988C140.824 25.7447 140.593 26.043 140.294 26.3214C140.001 26.5948 139.631 26.8161 139.183 26.9851C138.741 27.1491 138.221 27.2312 137.625 27.2312ZM138.326 25.2475C138.868 25.2475 139.337 25.1406 139.735 24.9268C140.133 24.7081 140.439 24.4197 140.652 24.0618C140.871 23.7038 140.98 23.3136 140.98 22.891V21.5412C140.896 21.6108 140.752 21.6754 140.548 21.7351C140.349 21.7947 140.125 21.8469 139.877 21.8917C139.628 21.9364 139.382 21.9762 139.138 22.011C138.895 22.0458 138.684 22.0756 138.505 22.1005C138.102 22.1552 137.741 22.2447 137.423 22.369C137.105 22.4933 136.854 22.6673 136.67 22.891C136.486 23.1097 136.394 23.3931 136.394 23.7411C136.394 24.2383 136.576 24.6136 136.939 24.8672C137.301 25.1207 137.764 25.2475 138.326 25.2475Z" fill="white"/>
<defs>
<linearGradient id="paint0_linear_916_83" x1="169" y1="1.25501e-06" x2="-6.29918e-07" y2="36" gradientUnits="userSpaceOnUse">
<stop stop-color="#FEDBA6"/>
<stop offset="1" stop-color="#8B0506"/>
</linearGradient>
</defs>
</svg>
