<svg width="27" height="27" viewBox="0 0 27 27" fill="none" xmlns="http://www.w3.org/2000/svg">
<circle cx="13.365" cy="13.365" r="13.365" fill="#8B0506"/>
<path d="M8.8052 15.601C8 14.8726 8 14.3215 8 11.976C8 9.63043 8 8.45734 8.8052 7.72898C9.6115 7 10.9073 7 13.5 7C16.0927 7 17.3891 7 18.1943 7.72898C18.9995 8.45796 19 9.63043 19 11.976C19 14.3215 19 14.8726 18.1943 15.601C17.3896 16.33 16.0927 16.33 13.5 16.33C12.1195 16.33 11.41 17.411 10.2 18.1959V16.1981C9.5983 16.0967 9.15555 15.9182 8.8052 15.601Z" stroke="white" stroke-linecap="round" stroke-linejoin="round"/>
</svg>
