<svg width="27" height="27" viewBox="0 0 27 27" fill="none" xmlns="http://www.w3.org/2000/svg">
<circle cx="13.5354" cy="13.365" r="13.365" fill="#8B0506"/>
<path d="M10.7131 8.94083C10.5744 8.78291 10.3787 8.68654 10.169 8.67292C9.95926 8.6593 9.75273 8.72954 9.59481 8.8682C9.43689 9.00686 9.34052 9.20258 9.3269 9.41229C9.31328 9.622 9.38353 9.82854 9.52219 9.98646L12.4848 13.3606L9.11067 16.3232C8.95275 16.4619 8.85638 16.6576 8.84276 16.8673C8.82914 17.077 8.89939 17.2836 9.03805 17.4415C9.17671 17.5994 9.37242 17.6958 9.58213 17.7094C9.79185 17.723 9.99838 17.6528 10.1563 17.5141L13.5305 14.5515L16.4931 17.9256C16.6317 18.0836 16.8275 18.1799 17.0372 18.1935C17.2469 18.2072 17.4534 18.1369 17.6113 17.9983C17.7693 17.8596 17.8656 17.6639 17.8792 17.4542C17.8929 17.2445 17.8226 17.0379 17.684 16.88L14.7213 13.5059L18.0955 10.5432C18.2534 10.4046 18.3498 10.2088 18.3634 9.99914C18.377 9.78942 18.3068 9.58289 18.1681 9.42497C18.0294 9.26705 17.8337 9.17068 17.624 9.15706C17.4143 9.14344 17.2078 9.21369 17.0498 9.35235L13.6757 12.315L10.7131 8.94083Z" fill="white"/>
</svg>
