<svg width="25" height="15" viewBox="0 0 25 15" fill="none" xmlns="http://www.w3.org/2000/svg">
<path d="M3.62461 9.14998L2.89336 7.79998H8.01211L7.42711 6.44998H2.64961L1.91836 5.09998H9.52336L8.93836 3.74998H1.78186L0.943359 2.39998H4.59961C4.59961 1.92259 4.80506 1.46475 5.17075 1.12718C5.53645 0.789618 6.03244 0.599976 6.54961 0.599976H18.2496V4.19998H21.1746L24.0996 7.79998V12.3H22.1496C22.1496 13.0161 21.8414 13.7028 21.2929 14.2092C20.7444 14.7155 20.0004 15 19.2246 15C18.4489 15 17.7049 14.7155 17.1563 14.2092C16.6078 13.7028 16.2996 13.0161 16.2996 12.3H12.3996C12.3996 13.0161 12.0914 13.7028 11.5429 14.2092C10.9944 14.7155 10.2504 15 9.47461 15C8.69885 15 7.95487 14.7155 7.40632 14.2092C6.85778 13.7028 6.54961 13.0161 6.54961 12.3H4.59961V9.14998H3.62461ZM19.2246 13.65C19.6125 13.65 19.9845 13.5077 20.2588 13.2546C20.533 13.0014 20.6871 12.658 20.6871 12.3C20.6871 11.9419 20.533 11.5986 20.2588 11.3454C19.9845 11.0922 19.6125 10.95 19.2246 10.95C18.8367 10.95 18.4647 11.0922 18.1905 11.3454C17.9162 11.5986 17.7621 11.9419 17.7621 12.3C17.7621 12.658 17.9162 13.0014 18.1905 13.2546C18.4647 13.5077 18.8367 13.65 19.2246 13.65ZM20.6871 5.54998H18.2496V7.79998H22.5981L20.6871 5.54998ZM9.47461 13.65C9.86249 13.65 10.2345 13.5077 10.5088 13.2546C10.783 13.0014 10.9371 12.658 10.9371 12.3C10.9371 11.9419 10.783 11.5986 10.5088 11.3454C10.2345 11.0922 9.86249 10.95 9.47461 10.95C9.08673 10.95 8.71474 11.0922 8.44047 11.3454C8.16619 11.5986 8.01211 11.9419 8.01211 12.3C8.01211 12.658 8.16619 13.0014 8.44047 13.2546C8.71474 13.5077 9.08673 13.65 9.47461 13.65Z" fill="#8B0506"/>
</svg>
