<svg width="15" height="20" viewBox="0 0 15 20" fill="none" xmlns="http://www.w3.org/2000/svg">
<path d="M14.6002 1.84502C14.6002 1.2544 14.0242 0.900024 13.4482 0.900024H13.1602C10.7122 0.900024 8.84019 3.1444 8.84019 6.4519V7.51502C8.84019 8.69627 9.56019 9.7594 10.8562 10.35C10.4242 11.7675 10.2802 13.3031 10.2802 13.3031V18.0281C10.2802 18.9731 11.2882 19.8 12.4402 19.8C13.5922 19.8 14.6002 18.9731 14.6002 18.0281V13.3031C14.6002 12.8306 14.4562 11.6494 14.1682 10.5863C14.4562 10.35 14.6002 10.1138 14.6002 9.7594V1.84502ZM6.24819 0.900024H5.9602V5.0344C5.9602 5.38877 5.67219 5.62502 5.2402 5.62502C4.8082 5.62502 4.5202 5.38877 4.5202 5.0344V1.49065C4.5202 1.13627 4.2322 0.900024 3.8002 0.900024C3.3682 0.900024 3.0802 1.13627 3.0802 1.49065V5.0344C3.0802 5.38877 2.7922 5.62502 2.3602 5.62502C1.9282 5.62502 1.6402 5.38877 1.6402 5.0344V0.900024H1.3522C0.776195 0.900024 0.200195 1.37252 0.200195 1.84502V6.21565C0.200195 7.3969 1.0642 8.46002 2.3602 8.93252C1.7842 10.8225 1.6402 13.3031 1.6402 13.3031V18.0281C1.6402 18.9731 2.6482 19.8 3.8002 19.8C4.9522 19.8 5.9602 18.9731 5.9602 18.0281V13.3031C5.9602 12.7125 5.8162 10.5863 5.38419 8.93252C6.53619 8.46002 7.4002 7.3969 7.4002 6.21565V1.84502C7.4002 1.37252 6.82419 0.900024 6.24819 0.900024Z" fill="#8B0506"/>
</svg>
