<svg width="17" height="19" viewBox="0 0 17 19" fill="none" xmlns="http://www.w3.org/2000/svg">
<path d="M2.99969 18C1.89531 18 1 17.0745 1 15.9317V7.61883C1 6.99078 1.27656 6.39579 1.75 6.00385L7.25031 1.45359C7.60174 1.16042 8.04372 1 8.5 1C8.95628 1 9.39826 1.16042 9.74969 1.45359L15.2491 6.00385C15.7234 6.39579 16 6.99078 16 7.61883V15.9317C16 17.0745 15.1047 18 14.0003 18H2.99969Z" stroke="#BABABA" stroke-width="1.5" stroke-linecap="round" stroke-linejoin="round"/>
<path d="M6.15625 18V12.8057C6.15625 12.3047 6.35379 11.8243 6.70543 11.47C7.05706 11.1158 7.53397 10.9168 8.03125 10.9168H8.96875C9.46603 10.9168 9.94294 11.1158 10.2946 11.47C10.6462 11.8243 10.8438 12.3047 10.8438 12.8057V18" stroke="#BABABA" stroke-width="1.5" stroke-linecap="round" stroke-linejoin="round"/>
</svg>
