<svg width="20" height="21" viewBox="0 0 20 21" fill="none" xmlns="http://www.w3.org/2000/svg">
<path d="M11.0286 0.00976562C12.1536 0.0127656 12.7246 0.0187656 13.2176 0.0327656L13.4116 0.0397656C13.6356 0.0477656 13.8566 0.0577656 14.1236 0.0697656C15.1876 0.119766 15.9136 0.287766 16.5506 0.534766C17.2106 0.788766 17.7666 1.13277 18.3226 1.68777C18.8313 2.1875 19.2248 2.79224 19.4756 3.45977C19.7226 4.09677 19.8906 4.82277 19.9406 5.88777C19.9526 6.15377 19.9626 6.37477 19.9706 6.59977L19.9766 6.79377C19.9916 7.28577 19.9976 7.85677 19.9996 8.98177L20.0006 9.72777V11.0378C20.003 11.7672 19.9953 12.4966 19.9776 13.2258L19.9716 13.4198C19.9636 13.6448 19.9536 13.8658 19.9416 14.1318C19.8916 15.1968 19.7216 15.9218 19.4756 16.5598C19.2248 17.2273 18.8313 17.832 18.3226 18.3318C17.8228 18.8405 17.2181 19.2339 16.5506 19.4848C15.9136 19.7318 15.1876 19.8998 14.1236 19.9498L13.4116 19.9798L13.2176 19.9858C12.7246 19.9998 12.1536 20.0068 11.0286 20.0088L10.2826 20.0098H8.97357C8.24383 20.0123 7.51409 20.0047 6.78457 19.9868L6.59057 19.9808C6.35318 19.9718 6.11584 19.9614 5.87857 19.9498C4.81457 19.8998 4.08857 19.7318 3.45057 19.4848C2.7834 19.2338 2.17901 18.8403 1.67957 18.3318C1.17051 17.8321 0.776678 17.2274 0.525569 16.5598C0.278569 15.9228 0.110569 15.1968 0.0605687 14.1318L0.0305688 13.4198L0.0255689 13.2258C0.00713493 12.4966 -0.00119929 11.7672 0.000568797 11.0378V8.98177C-0.0021991 8.25237 0.00513501 7.52296 0.0225689 6.79377L0.0295688 6.59977C0.0375688 6.37477 0.0475688 6.15377 0.0595688 5.88777C0.109569 4.82277 0.277569 4.09777 0.524569 3.45977C0.776263 2.79196 1.17079 2.1872 1.68057 1.68777C2.17972 1.17931 2.78376 0.785839 3.45057 0.534766C4.08857 0.287766 4.81357 0.119766 5.87857 0.0697656C6.14457 0.0577656 6.36657 0.0477656 6.59057 0.0397656L6.78457 0.0337656C7.51376 0.0159983 8.24316 0.00833093 8.97257 0.0107656L11.0286 0.00976562ZM10.0006 5.00977C8.67449 5.00977 7.40272 5.53655 6.46503 6.47423C5.52735 7.41191 5.00057 8.68368 5.00057 10.0098C5.00057 11.3358 5.52735 12.6076 6.46503 13.5453C7.40272 14.483 8.67449 15.0098 10.0006 15.0098C11.3267 15.0098 12.5984 14.483 13.5361 13.5453C14.4738 12.6076 15.0006 11.3358 15.0006 10.0098C15.0006 8.68368 14.4738 7.41191 13.5361 6.47423C12.5984 5.53655 11.3267 5.00977 10.0006 5.00977ZM10.0006 7.00977C10.3945 7.0097 10.7847 7.08723 11.1487 7.23794C11.5127 7.38864 11.8434 7.60956 12.122 7.88809C12.4007 8.16662 12.6217 8.4973 12.7725 8.86125C12.9233 9.22521 13.001 9.6153 13.0011 10.0093C13.0011 10.4032 12.9236 10.7934 12.7729 11.1574C12.6222 11.5214 12.4013 11.8521 12.1227 12.1307C11.8442 12.4094 11.5135 12.6304 11.1496 12.7812C10.7856 12.932 10.3955 13.0097 10.0016 13.0098C9.20592 13.0098 8.44286 12.6937 7.88025 12.1311C7.31764 11.5685 7.00157 10.8054 7.00157 10.0098C7.00157 9.21412 7.31764 8.45105 7.88025 7.88844C8.44286 7.32584 9.20592 7.00977 10.0016 7.00977M15.2516 3.50977C14.92 3.50977 14.6021 3.64146 14.3677 3.87588C14.1333 4.1103 14.0016 4.42825 14.0016 4.75977C14.0016 5.09129 14.1333 5.40923 14.3677 5.64365C14.6021 5.87807 14.92 6.00977 15.2516 6.00977C15.5831 6.00977 15.901 5.87807 16.1355 5.64365C16.3699 5.40923 16.5016 5.09129 16.5016 4.75977C16.5016 4.42825 16.3699 4.1103 16.1355 3.87588C15.901 3.64146 15.5831 3.50977 15.2516 3.50977Z" fill="#8B0506"/>
</svg>
