<svg width="6" height="9" viewBox="0 0 6 9" fill="none" xmlns="http://www.w3.org/2000/svg">
<path d="M0.245116 0.758817C0.198761 0.71588 0.162523 0.665372 0.138469 0.610176C0.114414 0.554981 0.103016 0.496179 0.104924 0.437128C0.106833 0.378076 0.122011 0.319932 0.149591 0.266015C0.177172 0.212098 0.216615 0.163464 0.265668 0.12289C0.314722 0.0823156 0.372426 0.0505956 0.435485 0.029541C0.498544 0.00848638 0.565723 -0.00149058 0.633187 0.000179895C0.700651 0.00185037 0.767078 0.0151355 0.828677 0.0392768C0.890275 0.063418 0.945837 0.0979426 0.992192 0.140879L5.35955 4.1885C5.44975 4.27201 5.5 4.38256 5.5 4.49747C5.5 4.61239 5.44975 4.72294 5.35955 4.80644L0.992192 8.85452C0.946144 8.89839 0.890593 8.93382 0.828768 8.95875C0.766943 8.98368 0.700077 8.9976 0.632051 8.99972C0.564026 9.00183 0.496199 8.9921 0.432508 8.97107C0.368819 8.95005 0.310536 8.91816 0.261046 8.87725C0.211555 8.83635 0.171844 8.78724 0.144219 8.73279C0.116593 8.67834 0.101604 8.61962 0.100122 8.56006C0.09864 8.50049 0.110694 8.44126 0.135585 8.38581C0.160476 8.33035 0.197707 8.27978 0.245116 8.23703L4.27953 4.49747L0.245116 0.758817Z" fill="black"/>
</svg>
