<svg width="15" height="11" viewBox="0 0 15 11" fill="none" xmlns="http://www.w3.org/2000/svg">
<path d="M14.1693 10.5H14.1667H0.833336C0.739335 10.5 0.675846 10.4724 0.610554 10.4003C0.542022 10.3246 0.500318 10.2299 0.500002 10.0823C0.499689 9.93627 0.540817 9.8428 0.609392 9.76763C0.676694 9.69385 0.741097 9.66666 0.833336 9.66666H14.1667C14.2607 9.66666 14.3248 9.69435 14.3909 9.76699C14.4591 9.8421 14.5003 9.93578 14.5 10.0822C14.4997 10.2299 14.458 10.3253 14.3889 10.4018C14.324 10.4737 14.2617 10.5005 14.1693 10.5ZM14.1693 5.91666H14.1667H0.833336C0.739335 5.91666 0.675846 5.88904 0.610554 5.81696C0.542023 5.74132 0.500318 5.64653 0.500002 5.49892C0.499689 5.35294 0.540818 5.25947 0.609392 5.1843C0.676694 5.11053 0.741097 5.08333 0.833336 5.08333H14.1667C14.2607 5.08333 14.3248 5.11102 14.3909 5.18366C14.4591 5.25877 14.5003 5.35245 14.5 5.49892C14.4997 5.64652 14.458 5.74199 14.3889 5.81852C14.324 5.89039 14.2617 5.91715 14.1693 5.91666ZM14.1693 1.33333H14.1667H0.833336C0.739335 1.33333 0.675846 1.30571 0.610554 1.23364C0.542023 1.15799 0.500318 1.0632 0.500002 0.915594C0.499689 0.769613 0.540817 0.676145 0.609392 0.600974C0.676694 0.527198 0.741096 0.5 0.833336 0.5H14.1667C14.2607 0.5 14.3248 0.527693 14.3909 0.600336C14.4591 0.67544 14.5003 0.769124 14.5 0.915593C14.4997 1.0632 14.458 1.15866 14.3889 1.23519C14.324 1.30706 14.2617 1.33382 14.1693 1.33333Z" fill="#272727" stroke="#BABABA"/>
</svg>
