<svg width="15" height="15" viewBox="0 0 15 15" fill="none" xmlns="http://www.w3.org/2000/svg">
<path d="M13.5052 5.01215L13.5052 5.01212C13.0131 3.82449 12.18 2.80942 11.1111 2.09528C10.1813 1.47405 9.10938 1.1048 8 1.01924V0.51788C8.7481 0.571452 9.48386 0.744995 10.1788 1.03284C11.0281 1.38463 11.7997 1.90024 12.4497 2.55025C13.0998 3.20026 13.6154 3.97194 13.9672 4.82122C14.255 5.51614 14.4285 6.2519 14.4821 7H13.9808C13.9281 6.3175 13.768 5.64651 13.5052 5.01215ZM4.67678 2.07322L5.01619 1.73381L4.67678 2.07322C4.72366 2.12011 4.75 2.1837 4.75 2.25V5.25C4.75 5.3163 4.72366 5.37989 4.67678 5.42678L5.03033 5.78033L4.67678 5.42678C4.62989 5.47366 4.5663 5.5 4.5 5.5H3H2.5V6C2.5 7.72391 3.18482 9.37721 4.40381 10.5962C5.62279 11.8152 7.27609 12.5 9 12.5H9.5V12V10.5C9.5 10.4337 9.52634 10.3701 9.57322 10.3232L9.21967 9.96967L9.57323 10.3232C9.62011 10.2763 9.6837 10.25 9.75 10.25H12.75C12.8163 10.25 12.8799 10.2763 12.9268 10.3232C12.9737 10.3701 13 10.4337 13 10.5V14.25C13 14.3163 12.9737 14.3799 12.9268 14.4268C12.8799 14.4737 12.8163 14.5 12.75 14.5H9C4.30589 14.5 0.5 10.6941 0.5 6V2.25C0.5 2.1837 0.526339 2.12011 0.573223 2.07322C0.620108 2.02634 0.683696 2 0.75 2H4.5C4.5663 2 4.62989 2.02634 4.67678 2.07322Z" fill="#BABABA" stroke="#BABABA"/>
<path d="M11.1953 5.96933L11.1953 5.9694C11.3323 6.29989 11.424 6.64655 11.4686 7H11.1156C11.0073 6.21666 10.6465 5.48462 10.0809 4.91906C9.51538 4.3535 8.78334 3.99271 8 3.88439V3.5314C8.61391 3.60878 9.20391 3.82789 9.72216 4.1742C10.3799 4.61374 10.8926 5.23845 11.1953 5.96933Z" fill="#BABABA" stroke="#BABABA"/>
</svg>
