<svg width="6" height="10" viewBox="0 0 6 10" fill="none" xmlns="http://www.w3.org/2000/svg">
<path d="M0.16124 0.84313C0.109735 0.795422 0.0694695 0.739302 0.0427423 0.677974C0.0160155 0.616645 0.00335026 0.55131 0.00547075 0.485697C0.00759172 0.420085 0.024456 0.35548 0.0551009 0.295573C0.0857458 0.235665 0.129571 0.181627 0.184076 0.136544C0.23858 0.0914618 0.302695 0.0562174 0.372761 0.0328233C0.442826 0.00942931 0.517469 -0.0016562 0.592429 0.000199884C0.667389 0.00205597 0.741198 0.0168172 0.80964 0.0436408C0.878083 0.0704645 0.939819 0.108825 0.991324 0.156533L5.84395 4.65389C5.94416 4.74667 6 4.86951 6 4.99719C6 5.12487 5.94416 5.24771 5.84395 5.34049L0.991324 9.83835C0.940159 9.8871 0.878437 9.92647 0.809742 9.95417C0.741048 9.98186 0.666751 9.99733 0.591168 9.99969C0.515584 10.002 0.44022 9.99122 0.369454 9.96786C0.298687 9.9445 0.233928 9.90907 0.178939 9.86362C0.12395 9.81816 0.0798264 9.7636 0.0491314 9.7031C0.0184364 9.6426 0.00178194 9.57736 0.000135422 9.51117C-0.00151157 9.44499 0.0118823 9.37918 0.0395389 9.31756C0.0671954 9.25595 0.108563 9.19976 0.16124 9.15225L4.64392 4.99719L0.16124 0.84313Z" fill="black"/>
</svg>
