<svg width="15" height="15" viewBox="0 0 15 15" fill="none" xmlns="http://www.w3.org/2000/svg">
<path d="M2.50703 11.6494L2.81463 12.0102L13.5 7.5H14C14 7.49988 14 7.49977 14 7.49966C13.9999 5.7056 13.3636 4.16257 12.1009 2.89927C10.8379 1.63577 9.29463 0.99946 7.49985 1C5.70524 1.00054 4.16209 1.63705 2.8992 2.89995C1.63629 4.16285 1 5.70579 1 7.5C1 8.29374 1.13152 9.04736 1.39789 9.75697C1.66163 10.4595 2.03126 11.0914 2.50703 11.6494ZM7.50067 7.75H7.5C6.89056 7.75 6.39701 7.5465 5.98738 7.13727C5.57802 6.72832 5.37458 6.2351 5.375 5.62534C5.37541 5.01519 5.57922 4.52164 5.9883 4.11255C6.39737 3.70348 6.89056 3.5 7.5 3.5C8.10928 3.5 8.60277 3.70363 9.01244 4.1133C9.4221 4.52296 9.62541 5.01609 9.62499 5.62466C9.62458 6.23377 9.42103 6.72764 9.01192 7.13797C8.60366 7.54744 8.11077 7.75082 7.50067 7.75ZM7.50048 14.5H7.5C6.52762 14.5 5.62038 14.3158 4.7732 13.95C3.91618 13.5799 3.17569 13.0806 2.54717 12.4526C1.91884 11.8247 1.41967 11.0844 1.05017 10.2271C0.684732 9.37921 0.50047 8.47177 0.500001 7.49976C0.499532 6.52808 0.68373 5.62096 1.04999 4.77332C1.42057 3.91567 1.91991 3.17516 2.54743 2.54717C3.17477 1.91937 3.91507 1.42016 4.77302 1.05012C5.62137 0.684217 6.52869 0.5 7.5 0.5C8.4713 0.5 9.37863 0.684217 10.227 1.05012C11.0849 1.42016 11.8252 1.91937 12.4526 2.54717C13.0801 3.17521 13.5798 3.91579 13.9508 4.77353C14.3175 5.62096 14.5014 6.52784 14.5 7.49927C14.4986 8.47162 14.3143 9.37938 13.9496 10.2275C13.5812 11.0845 13.0822 11.8246 12.4531 12.4523C11.8233 13.0807 11.0826 13.5803 10.2264 13.9509C9.3806 14.3169 8.47369 14.5009 7.50048 14.5ZM11.2861 12.776L11.8251 12.3747L7.5 13.5V14C7.50012 14 7.50025 14 7.50037 14C8.2121 14 8.89008 13.8959 9.53141 13.6847C10.1691 13.4746 10.7547 13.1717 11.2861 12.776ZM6.34019 4.46519L6.69375 4.81875L6.34019 4.4652C6.02582 4.77957 5.875 5.17931 5.875 5.625C5.875 6.07068 6.02582 6.47043 6.34019 6.7848C6.65457 7.09918 7.05431 7.25 7.5 7.25C7.94568 7.25 8.34542 7.09918 8.6598 6.7848C8.97418 6.47043 9.125 6.07068 9.125 5.625C9.125 5.17931 8.97418 4.77957 8.6598 4.46519C8.34542 4.15082 7.94568 4 7.5 4C7.05431 4 6.65457 4.15082 6.34019 4.46519Z" fill="#272727" stroke="#BABABA"/>
</svg>
