<svg width="65" height="65" viewBox="0 0 65 65" fill="none" xmlns="http://www.w3.org/2000/svg">
<circle cx="32.7844" cy="32.6804" r="31.9094" fill="#00AC7C"/>
<path fill-rule="evenodd" clip-rule="evenodd" d="M51.8514 20.0353C52.4126 20.6214 52.7278 21.4162 52.7278 22.245C52.7278 23.0738 52.4126 23.8686 51.8514 24.4547L29.4169 47.8812C29.1204 48.1909 28.7684 48.4365 28.381 48.6041C27.9936 48.7717 27.5784 48.858 27.1591 48.858C26.7398 48.858 26.3245 48.7717 25.9371 48.6041C25.5497 48.4365 25.1977 48.1909 24.9013 47.8812L13.7548 36.244C13.469 35.9557 13.2409 35.6108 13.0841 35.2295C12.9272 34.8482 12.8446 34.4381 12.8412 34.0231C12.8377 33.6081 12.9135 33.1965 13.064 32.8124C13.2145 32.4283 13.4367 32.0793 13.7177 31.7859C13.9988 31.4924 14.333 31.2603 14.7008 31.1032C15.0686 30.946 15.4628 30.8669 15.8602 30.8705C16.2576 30.8741 16.6504 30.9604 17.0156 31.1242C17.3807 31.288 17.711 31.5261 17.9871 31.8246L27.1581 41.4011L47.6171 20.0353C47.8951 19.7448 48.2252 19.5144 48.5884 19.3572C48.9517 19.2 49.3411 19.1191 49.7343 19.1191C50.1275 19.1191 50.5169 19.2 50.8802 19.3572C51.2434 19.5144 51.5735 19.7448 51.8514 20.0353Z" fill="white"/>
</svg>
