<svg width="22" height="22" viewBox="0 0 22 22" fill="none" xmlns="http://www.w3.org/2000/svg">
<circle cx="11" cy="11.0098" r="11" fill="#8B0506"/>
<path d="M13.9337 6.88977C13.4978 6.36945 13.2576 5.70137 13.2577 5.00977H11.287V13.2764C11.2721 13.7239 11.0915 14.1478 10.7834 14.4588C10.4752 14.7697 10.0635 14.9434 9.6352 14.9431C8.72959 14.9431 7.97704 14.1698 7.97704 13.2098C7.97704 12.0631 9.03571 11.2031 10.1263 11.5564V9.44977C7.92602 9.1431 6 10.9298 6 13.2098C6 15.4298 7.7602 17.0098 9.62883 17.0098C11.6314 17.0098 13.2577 15.3098 13.2577 13.2098V9.01643C14.0568 9.61633 15.0162 9.9382 16 9.93643V7.87643C16 7.87643 14.801 7.93643 13.9337 6.88977Z" fill="white"/>
</svg>
