<svg width="22" height="22" viewBox="0 0 22 22" fill="none" xmlns="http://www.w3.org/2000/svg">
<g clip-path="url(#clip0_1014_217)">
<path d="M0.469863 10.8784C0.469348 12.7268 0.956098 14.5316 1.88164 16.1225L0.381348 21.5578L5.98722 20.0993C7.53774 20.9369 9.27497 21.3757 11.0403 21.3759H11.045C16.8728 21.3759 21.6168 16.6703 21.6193 10.8866C21.6205 8.08402 20.5215 5.44863 18.5248 3.4659C16.5285 1.48334 13.8734 0.390928 11.0446 0.389648C5.21602 0.389648 0.472355 5.09492 0.469949 10.8784" fill="#8B0506"/>
<path d="M8.30867 6.3325C8.10362 5.88031 7.88784 5.87118 7.69284 5.86325C7.53317 5.85643 7.35064 5.85694 7.16828 5.85694C6.98575 5.85694 6.68918 5.92507 6.4385 6.19666C6.18756 6.46851 5.48047 7.12544 5.48047 8.46155C5.48047 9.79767 6.46127 11.089 6.598 11.2704C6.7349 11.4514 8.49146 14.2811 11.2734 15.3696C13.5855 16.2743 14.056 16.0944 14.5578 16.049C15.0597 16.0038 16.1772 15.3922 16.4052 14.7581C16.6334 14.124 16.6334 13.5805 16.5649 13.4669C16.4965 13.3537 16.314 13.2858 16.0403 13.15C15.7666 13.0143 14.4209 12.3572 14.17 12.2665C13.9191 12.176 13.7367 12.1308 13.5541 12.4027C13.3716 12.6742 12.8475 13.2858 12.6877 13.4669C12.5281 13.6484 12.3684 13.671 12.0947 13.5352C11.8208 13.3989 10.9394 13.1125 9.89362 12.1874C9.07996 11.4675 8.53065 10.5786 8.37098 10.3067C8.2113 10.0352 8.35387 9.88797 8.49112 9.75265C8.61409 9.63097 8.76491 9.43552 8.9019 9.277C9.03837 9.1184 9.08391 9.00524 9.17518 8.82413C9.26653 8.64284 9.22081 8.48424 9.15249 8.3484C9.08391 8.21256 8.55205 6.86945 8.30867 6.3325Z" fill="white"/>
</g>
<defs>
<clipPath id="clip0_1014_217">
<rect width="22" height="22" fill="white" transform="translate(0 0.00976562)"/>
</clipPath>
</defs>
</svg>
