<svg width="22" height="22" viewBox="0 0 22 22" fill="none" xmlns="http://www.w3.org/2000/svg">
<g clip-path="url(#clip0_512_79)">
<path d="M0.469985 10.8685C0.46947 12.7169 0.95622 14.5218 1.88177 16.1126L0.38147 21.5479L5.98734 20.0895C7.53786 20.927 9.27509 21.3658 11.0405 21.366H11.0451C16.873 21.366 21.617 16.6604 21.6195 10.8767C21.6206 8.07413 20.5216 5.43874 18.5249 3.45601C16.5286 1.47345 13.8736 0.38104 11.0447 0.379761C5.21614 0.379761 0.472478 5.08503 0.470071 10.8685" fill="#8B0506"/>
<path d="M8.30863 6.32274C8.10359 5.87054 7.8878 5.86142 7.69281 5.85349C7.53313 5.84666 7.3506 5.84718 7.16824 5.84718C6.98571 5.84718 6.68914 5.91531 6.43846 6.1869C6.18752 6.45874 5.48043 7.11567 5.48043 8.45179C5.48043 9.78791 6.46124 11.0793 6.59796 11.2606C6.73486 11.4417 8.49142 14.2713 11.2734 15.3599C13.5855 16.2645 14.056 16.0846 14.5577 16.0392C15.0596 15.994 16.1772 15.3825 16.4051 14.7483C16.6333 14.1142 16.6333 13.5707 16.5649 13.4571C16.4965 13.344 16.314 13.276 16.0403 13.1403C15.7665 13.0045 14.4209 12.3474 14.17 12.2568C13.9191 12.1662 13.7366 12.121 13.5541 12.3929C13.3716 12.6644 12.8474 13.276 12.6877 13.4571C12.5281 13.6387 12.3683 13.6613 12.0947 13.5254C11.8208 13.3892 10.9394 13.1027 9.89358 12.1776C9.07992 11.4578 8.53061 10.5688 8.37094 10.2969C8.21127 10.0254 8.35384 9.87821 8.49108 9.74288C8.61406 9.6212 8.76488 9.42576 8.90186 9.26724C9.03833 9.10863 9.08388 8.99548 9.17514 8.81436C9.26649 8.63308 9.22077 8.47447 9.15245 8.33863C9.08388 8.2028 8.55201 6.85969 8.30863 6.32274Z" fill="white"/>
</g>
<defs>
<clipPath id="clip0_512_79">
<rect width="22" height="22" fill="white"/>
</clipPath>
</defs>
</svg>
